<svg xmlns="http://www.w3.org/2000/svg" viewBox="0 0 660 330" role="img" aria-label="Mean total score by condition with per-run distribution">
<style>
.bg { fill: #fcfcfb; }
.grid { stroke: #e1e0d9; stroke-width: 1; }
.axis { stroke: #c3c2b7; stroke-width: 1; }
.tick { fill: #898781; font-size: 12px; font-family: system-ui, -apple-system, "Segoe UI", sans-serif; font-variant-numeric: tabular-nums; }
.vlabel { fill: #52514e; font-size: 13px; font-weight: 600; font-family: system-ui, -apple-system, "Segoe UI", sans-serif; }
.s1 { fill: #2a78d6; } .s2 { fill: #1baf7a; } .s3 { fill: #eda100; } .s4 { fill: #008300; }
.dot { stroke: #fcfcfb; stroke-width: 2; }
</style>
<rect class="bg" x="0" y="0" width="660" height="330"/><line class="grid" x1="46" y1="284.0" x2="644" y2="284.0"/><text class="tick" x="38" y="288.0" text-anchor="end">0</text><line class="grid" x1="46" y1="230.8" x2="644" y2="230.8"/><text class="tick" x="38" y="234.8" text-anchor="end">2</text><line class="grid" x1="46" y1="177.6" x2="644" y2="177.6"/><text class="tick" x="38" y="181.6" text-anchor="end">4</text><line class="grid" x1="46" y1="124.4" x2="644" y2="124.4"/><text class="tick" x="38" y="128.4" text-anchor="end">6</text><line class="grid" x1="46" y1="71.2" x2="644" y2="71.2"/><text class="tick" x="38" y="75.2" text-anchor="end">8</text><line class="grid" x1="46" y1="18.0" x2="644" y2="18.0"/><text class="tick" x="38" y="22.0" text-anchor="end">10</text><line class="axis" x1="46" y1="284.0" x2="644" y2="284.0"/><path class="s1 mark" d="M108.75,284.0 v-258.675 q0,-4 4,-4 h16 q4,0 4,4 v258.675 z" data-tip="Fable 5 (bare): mean 9.88 (n=8)"/><text class="vlabel" x="120.75" y="13.3" text-anchor="middle">9.88</text><circle class="dot s1 mark" cx="120.8" cy="44.6" r="4.5" data-tip="Fable 5 (bare): total 9"/><circle class="dot s1 mark" cx="87.8" cy="18.0" r="4.5" data-tip="Fable 5 (bare): total 10"/><circle class="dot s1 mark" cx="98.8" cy="18.0" r="4.5" data-tip="Fable 5 (bare): total 10"/><circle class="dot s1 mark" cx="109.8" cy="18.0" r="4.5" data-tip="Fable 5 (bare): total 10"/><circle class="dot s1 mark" cx="120.8" cy="18.0" r="4.5" data-tip="Fable 5 (bare): total 10"/><circle class="dot s1 mark" cx="131.8" cy="18.0" r="4.5" data-tip="Fable 5 (bare): total 10"/><circle class="dot s1 mark" cx="142.8" cy="18.0" r="4.5" data-tip="Fable 5 (bare): total 10"/><circle class="dot s1 mark" cx="153.8" cy="18.0" r="4.5" data-tip="Fable 5 (bare): total 10"/><text class="tick" x="120.75" y="302" text-anchor="middle">Fable 5</text><text class="tick" x="120.75" y="317" text-anchor="middle">(bare)</text><path class="s2 mark" d="M258.25,284.0 v-225.425 q0,-4 4,-4 h16 q4,0 4,4 v225.425 z" data-tip="Opus 4.8 (bare): mean 8.62 (n=8)"/><text class="vlabel" x="270.25" y="46.6" text-anchor="middle">8.62</text><circle class="dot s2 mark" cx="270.2" cy="124.4" r="4.5" data-tip="Opus 4.8 (bare): total 6"/><circle class="dot s2 mark" cx="264.8" cy="71.2" r="4.5" data-tip="Opus 4.8 (bare): total 8"/><circle class="dot s2 mark" cx="275.8" cy="71.2" r="4.5" data-tip="Opus 4.8 (bare): total 8"/><circle class="dot s2 mark" cx="259.2" cy="44.6" r="4.5" data-tip="Opus 4.8 (bare): total 9"/><circle class="dot s2 mark" cx="270.2" cy="44.6" r="4.5" data-tip="Opus 4.8 (bare): total 9"/><circle class="dot s2 mark" cx="281.2" cy="44.6" r="4.5" data-tip="Opus 4.8 (bare): total 9"/><circle class="dot s2 mark" cx="264.8" cy="18.0" r="4.5" data-tip="Opus 4.8 (bare): total 10"/><circle class="dot s2 mark" cx="275.8" cy="18.0" r="4.5" data-tip="Opus 4.8 (bare): total 10"/><text class="tick" x="270.25" y="302" text-anchor="middle">Opus 4.8</text><text class="tick" x="270.25" y="317" text-anchor="middle">(bare)</text><path class="s3 mark" d="M407.75,284.0 v-232.075 q0,-4 4,-4 h16 q4,0 4,4 v232.075 z" data-tip="Opus 4.8 + harness v1: mean 8.88 (n=8)"/><text class="vlabel" x="419.75" y="39.9" text-anchor="middle">8.88</text><circle class="dot s3 mark" cx="419.8" cy="124.4" r="4.5" data-tip="Opus 4.8 + harness v1: total 6"/><circle class="dot s3 mark" cx="414.2" cy="71.2" r="4.5" data-tip="Opus 4.8 + harness v1: total 8"/><circle class="dot s3 mark" cx="425.2" cy="71.2" r="4.5" data-tip="Opus 4.8 + harness v1: total 8"/><circle class="dot s3 mark" cx="419.8" cy="44.6" r="4.5" data-tip="Opus 4.8 + harness v1: total 9"/><circle class="dot s3 mark" cx="403.2" cy="18.0" r="4.5" data-tip="Opus 4.8 + harness v1: total 10"/><circle class="dot s3 mark" cx="414.2" cy="18.0" r="4.5" data-tip="Opus 4.8 + harness v1: total 10"/><circle class="dot s3 mark" cx="425.2" cy="18.0" r="4.5" data-tip="Opus 4.8 + harness v1: total 10"/><circle class="dot s3 mark" cx="436.2" cy="18.0" r="4.5" data-tip="Opus 4.8 + harness v1: total 10"/><text class="tick" x="419.75" y="302" text-anchor="middle">Opus 4.8</text><text class="tick" x="419.75" y="317" text-anchor="middle">+ harness v1</text><path class="s4 mark" d="M557.25,284.0 v-258.675 q0,-4 4,-4 h16 q4,0 4,4 v258.675 z" data-tip="Opus 4.8 + harness v2: mean 9.88 (n=8)"/><text class="vlabel" x="569.25" y="13.3" text-anchor="middle">9.88</text><circle class="dot s4 mark" cx="569.2" cy="44.6" r="4.5" data-tip="Opus 4.8 + harness v2: total 9"/><circle class="dot s4 mark" cx="536.2" cy="18.0" r="4.5" data-tip="Opus 4.8 + harness v2: total 10"/><circle class="dot s4 mark" cx="547.2" cy="18.0" r="4.5" data-tip="Opus 4.8 + harness v2: total 10"/><circle class="dot s4 mark" cx="558.2" cy="18.0" r="4.5" data-tip="Opus 4.8 + harness v2: total 10"/><circle class="dot s4 mark" cx="569.2" cy="18.0" r="4.5" data-tip="Opus 4.8 + harness v2: total 10"/><circle class="dot s4 mark" cx="580.2" cy="18.0" r="4.5" data-tip="Opus 4.8 + harness v2: total 10"/><circle class="dot s4 mark" cx="591.2" cy="18.0" r="4.5" data-tip="Opus 4.8 + harness v2: total 10"/><circle class="dot s4 mark" cx="602.2" cy="18.0" r="4.5" data-tip="Opus 4.8 + harness v2: total 10"/><text class="tick" x="569.25" y="302" text-anchor="middle">Opus 4.8</text><text class="tick" x="569.25" y="317" text-anchor="middle">+ harness v2</text></svg>